<svg viewBox="0 0 1024 1024" version="1.1" xmlns="http://www.w3.org/2000/svg" desc="Created with imagetracer.js version 1.2.6" ><path fill="rgb(230,49,47)" stroke="rgb(230,49,47)" stroke-width="1" opacity="0.35294117647058826" d="M 455.5 149 L 454.5 151 L 455.5 149 Z " /><path fill="rgb(230,49,47)" stroke="rgb(230,49,47)" stroke-width="1" opacity="0.35294117647058826" d="M 498.5 180 L 499.5 182 L 498.5 180 Z " /><path fill="rgb(230,49,47)" stroke="rgb(230,49,47)" stroke-width="1" opacity="0.35294117647058826" d="M 461.5 188 L 462 190.5 L 461 190.5 L 461.5 188 Z " /><path fill="rgb(230,49,47)" stroke="rgb(230,49,47)" stroke-width="1" opacity="0.35294117647058826" d="M 512.5 192 L 514.5 195 L 512.5 192 Z " /><path fill="rgb(230,49,47)" stroke="rgb(230,49,47)" stroke-width="1" opacity="0.35294117647058826" d="M 537.5 217 L 538.5 219 L 537.5 217 Z " /><path fill="rgb(230,49,47)" stroke="rgb(230,49,47)" stroke-width="1" opacity="0.35294117647058826" d="M 642.5 296 L 643 297.5 L 641 298.5 L 642.5 296 Z " /><path fill="rgb(230,49,47)" stroke="rgb(230,49,47)" stroke-width="1" opacity="0.35294117647058826" d="M 651.5 307 L 653.5 310 L 651.5 307 Z " /><path fill="rgb(230,49,47)" stroke="rgb(230,49,47)" stroke-width="1" opacity="0.35294117647058826" d="M 657.5 314 L 658.5 316 L 657.5 314 Z " /><path fill="rgb(230,49,47)" stroke="rgb(230,49,47)" stroke-width="1" opacity="0.35294117647058826" d="M 644.5 316 L 645 318.5 L 644 318.5 L 644.5 316 Z " /><path fill="rgb(230,49,47)" stroke="rgb(230,49,47)" stroke-width="1" opacity="0.35294117647058826" d="M 661.5 319 L 662.5 321 L 661.5 319 Z " /><path fill="rgb(230,49,47)" stroke="rgb(230,49,47)" stroke-width="1" opacity="0.35294117647058826" d="M 645.5 333 L 646 343.5 L 645 343.5 L 645.5 333 Z " /><path fill="rgb(230,49,47)" stroke="rgb(230,49,47)" stroke-width="1" opacity="0.35294117647058826" d="M 385.5 407 L 384.5 409 L 385.5 407 Z " /><path fill="rgb(230,49,47)" stroke="rgb(230,49,47)" stroke-width="1" opacity="0.35294117647058826" d="M 760.5 591 L 761 594.5 L 760 594.5 L 760.5 591 Z " /><path fill="rgb(230,49,47)" stroke="rgb(230,49,47)" stroke-width="1" opacity="0.35294117647058826" d="M 294.5 723 L 295.5 725 L 294.5 723 Z " /><path fill="rgb(230,49,47)" stroke="rgb(230,49,47)" stroke-width="1" opacity="0.35294117647058826" d="M 297.5 727 L 298.5 729 L 297.5 727 Z " /><path fill="rgb(230,49,47)" stroke="rgb(230,49,47)" stroke-width="1" opacity="0.35294117647058826" d="M 301.5 732 L 302.5 734 L 301.5 732 Z " /><path fill="rgb(230,49,47)" stroke="rgb(230,49,47)" stroke-width="1" opacity="0.35294117647058826" d="M 721.5 734 L 720.5 736 L 721.5 734 Z " /><path fill="rgb(230,49,47)" stroke="rgb(230,49,47)" stroke-width="1" opacity="0.35294117647058826" d="M 307.5 739 L 309.5 742 L 307.5 739 Z " /><path fill="rgb(230,49,47)" stroke="rgb(230,49,47)" stroke-width="1" opacity="0.35294117647058826" d="M 716.5 740 L 715.5 742 L 716.5 740 Z " /><path fill="rgb(230,49,47)" stroke="rgb(230,49,47)" stroke-width="1" opacity="0.35294117647058826" d="M 320.5 752 L 323.5 756 L 320.5 752 Z " /><path fill="rgb(230,49,47)" stroke="rgb(230,49,47)" stroke-width="1" opacity="0.35294117647058826" d="M 695.5 761 L 694.5 763 L 695.5 761 Z " /><path fill="rgb(230,49,47)" stroke="rgb(230,49,47)" stroke-width="1" opacity="0.35294117647058826" d="M 333.5 763 L 334.5 765 L 333.5 763 Z " /><path fill="rgb(253,217,21)" stroke="rgb(253,217,21)" stroke-width="1" opacity="0.9921568627450981" d="M 507.5 491 Q 578.7 556.3 597.5 674 L 612 650.5 L 617 624.5 L 616 622 L 618 623.5 L 626 633.5 L 638 661.5 L 643 689.5 L 643 708.5 L 641 724.5 L 634 748.5 L 627 762.5 L 610 785 L 582.5 803 L 559.5 809 L 482.5 809 Q 449.5 798 430 773.5 Q 415 756 407 731.5 L 402 708.5 L 401 681.5 L 404 659.5 L 411 635.5 L 433 592 L 435 593.5 L 447 615.5 L 452 634 L 454 632.5 Q 481.2 603.7 497 563.5 L 506 527.5 L 507.5 491 Z " /><path fill="rgb(244,21,30)" stroke="rgb(244,21,30)" stroke-width="1" opacity="0.9921568627450981" d="M 454.5 151 Q 502.2 177.3 537 216.5 Q 605.4 293.6 625.5 419 L 633 406.5 L 641 382.5 L 645 359.5 L 646 333.5 L 642 298.5 L 651 306.5 Q 677.1 335.9 696 372.5 L 718 420.5 L 732 458.5 L 746 505.5 L 755 546.5 L 760 581.5 L 761 625.5 L 756 661.5 L 745 695.5 Q 727.4 734.9 696.5 761 Q 670.9 782.9 635.5 795 L 610.5 802 L 570.5 808 L 570.5 807 L 597.5 799 L 617.5 790 Q 639 777.5 655 759.5 L 675 731.5 L 687 705.5 L 697 664.5 L 699 628.5 L 695 587.5 L 682 540.5 L 667 507.5 L 644.5 476 L 643 499.5 L 638 521.5 L 622 553.5 L 609.5 568 L 597 510.5 L 574 447.5 Q 547.8 387.8 502.5 347 L 492 340 L 491 380.5 L 479 432.5 Q 458.7 490.2 421.5 531 L 421 528.5 L 422 524.5 L 414 491.5 L 401.5 465 Q 369.5 506 349 558.5 L 338 595.5 L 333 637.5 L 333 641.5 L 337 685.5 L 347 716.5 Q 361.9 751.6 389.5 774 L 418.5 793 L 448.5 805 L 460 806.5 L 451.5 807 L 402.5 798 L 365.5 784 Q 333.2 767.8 310 742.5 Q 287.3 718.7 274 685.5 L 263 644.5 L 261 600.5 L 267 557.5 L 279 516.5 L 296 476.5 L 338 394.5 L 358.5 334 Q 377.4 365.6 384.5 409 Q 421.3 361.3 444 299.5 L 452 274.5 L 460 237.5 L 462 220.5 L 462 188.5 L 458 162.5 L 454.5 151 Z " /><path fill="rgb(244,21,30)" stroke="rgb(244,21,30)" stroke-width="1" opacity="0.9921568627450981" d="M 513.5 495 L 521.5 504 L 513.5 495 Z " /><path fill="rgb(244,21,30)" stroke="rgb(244,21,30)" stroke-width="1" opacity="0.9921568627450981" d="M 527.5 510 L 529.5 513 L 527.5 510 Z " /><path fill="rgb(244,21,30)" stroke="rgb(244,21,30)" stroke-width="1" opacity="0.9921568627450981" d="M 531.5 515 L 532.5 517 L 531.5 515 Z " /><path fill="rgb(244,21,30)" stroke="rgb(244,21,30)" stroke-width="1" opacity="0.9921568627450981" d="M 463.5 620 L 462.5 622 L 463.5 620 Z " /><path fill="rgb(244,21,30)" stroke="rgb(244,21,30)" stroke-width="1" opacity="0.9921568627450981" d="M 458.5 626 L 456.5 629 L 458.5 626 Z " /><path fill="rgb(244,21,30)" stroke="rgb(244,21,30)" stroke-width="1" opacity="0.9921568627450981" d="M 452.5 631 L 452.5 634 L 452.5 631 Z " /><path fill="rgb(244,21,30)" stroke="rgb(244,21,30)" stroke-width="1" opacity="0.9921568627450981" d="M 400.5 681 L 401 683.5 L 400 683.5 L 400.5 681 Z " /><path fill="rgb(0,0,0)" stroke="rgb(0,0,0)" stroke-width="1" opacity="0" d="M 0 0 L 1024 0 L 1024 1024 L 0 1024 L 0 0 Z M 456 148 L 455 150 L 453 151 L 459 171 L 462 198 L 461 200 L 462 207 L 462 209 L 458 247 L 445 296 L 428 337 L 402 383 L 400 384 L 385 408 L 380 384 L 375 371 L 376 369 L 374 368 L 360 336 L 360 334 L 359 332 L 338 393 L 337 392 L 336 392 L 337 395 L 294 480 L 277 521 L 265 564 L 261 606 L 261 610 L 260 620 L 260 622 L 265 655 L 264 658 L 265 661 L 266 658 L 276 691 L 274 692 L 277 692 Q 289 722 310 743 L 312 744 L 316 750 L 349 775 L 389 794 L 432 805 L 493 810 L 565 809 L 618 801 L 643 793 L 669 781 L 700 759 Q 729 733 746 695 L 757 660 L 762 618 L 761 616 L 762 608 L 760 576 L 753 533 L 740 482 L 724 435 L 690 361 L 671 331 L 643 296 L 640 297 L 644 313 L 645 351 L 645 353 L 638 392 L 627 417 L 616 369 L 592 302 L 568 257 L 535 214 L 492 174 L 458 152 L 456 148 Z M 458 172 L 457 175 L 458 175 L 458 172 Z M 644 335 L 643 338 L 644 338 L 644 335 Z M 750 511 L 749 514 L 750 514 L 750 511 Z M 260 627 L 259 630 L 260 630 L 260 627 Z " /><path fill="rgb(253,109,10)" stroke="rgb(253,109,10)" stroke-width="1" opacity="0.9921568627450981" d="M 492 340 Q 510 350.5 523 367.5 L 553 407.5 L 578 456.5 L 597 510.5 L 609.5 568 L 616 563 L 638 521.5 L 643 499.5 L 644.5 476 L 667 507.5 L 688 558.5 L 697 600.5 L 699 641.5 L 693 685.5 L 682 717.5 Q 667.2 749.7 642.5 772 Q 626.5 787 604.5 796 L 603 795.5 L 600.5 797 L 585.5 802 L 585.5 801 L 601.5 791 L 603 791.5 L 608.5 785 L 610 783.5 Q 624.3 771.7 631 753 L 633 752.5 L 633 750.5 L 642 718.5 L 643 689.5 L 640 671.5 L 641 669 Q 637.7 670.3 639 665.5 L 633 648.5 L 633.5 647 L 632 646.5 L 632.5 645 L 631 643.5 L 624 631.5 L 624.5 630 L 622 628.5 L 618 622 L 616 623.5 L 616 625.5 Q 616.3 646.8 607.5 659 L 606 659.5 L 606 661.5 L 599.5 671 L 598 671.5 L 597.5 674 L 592 643.5 L 592.5 642 L 591 639.5 L 591.5 638 L 590 634.5 L 579 601.5 L 579.5 600 L 578 598.5 L 575 591.5 L 575.5 590 L 574 588.5 L 569 577.5 L 569.5 576 L 568 575.5 L 568.5 574 L 567 572.5 L 562 563.5 L 562.5 562 L 561 560.5 L 556 552.5 L 556.5 551 L 554 549.5 L 553 547.5 L 553.5 546 L 551 544.5 L 546 536.5 L 546.5 535 L 543 532.5 L 531 516.5 L 531.5 515 L 527 511.5 L 527.5 510 L 507.5 491 L 506 527.5 L 498 561 L 496 561.5 L 497 563.5 L 479.5 598 L 478 598.5 L 477 601.5 L 464.5 620 L 463 620.5 L 459.5 626 L 458 626.5 L 454.5 632 L 451 631 L 448 619.5 L 448.5 618 L 447 615.5 L 435 592 L 431.5 594 L 430 597.5 L 427.5 602 L 426 602.5 L 426 604.5 L 424 609 L 422 609.5 L 422 611.5 L 420.5 613 L 420 615.5 L 418 621 L 416 621.5 L 416.5 623 L 415 623.5 L 416 625.5 L 409 644 L 407 644.5 L 408 646.5 L 403 664.5 L 402 681 L 400 683.5 L 402 708.5 L 407 731.5 L 418 756.5 L 426 767.5 L 425.5 769 L 430 772.5 L 446.5 790 L 466.5 803 L 479 807.5 L 476.5 808 L 474.5 807 L 461.5 808 L 436.5 801 L 409.5 788 Q 386.5 774.5 370 754.5 L 356 734.5 L 340 697.5 L 335 672.5 L 333 641.5 L 334 636.5 L 334 620.5 L 338 595.5 L 349 558.5 Q 368.9 506.9 400.5 467 L 403 468.5 L 418 503.5 L 422 527.5 L 421 530.5 L 423 529.5 Q 459.1 489.1 479 432.5 L 491 380.5 L 492 340 Z " /><path fill="rgb(253,109,10)" stroke="rgb(253,109,10)" stroke-width="1" opacity="0.9921568627450981" d="M 570.5 806 L 572 806.5 L 565.5 808 L 565.5 807 L 570.5 806 Z " /><path fill="rgb(244,91,88)" stroke="rgb(244,91,88)" stroke-width="1" opacity="0.027450980392156862" d="M 461.5 199 L 462 201.5 L 461 201.5 L 461.5 199 Z " /><path fill="rgb(244,91,88)" stroke="rgb(244,91,88)" stroke-width="1" opacity="0.027450980392156862" d="M 527.5 206 L 528.5 208 L 527.5 206 Z " /><path fill="rgb(244,91,88)" stroke="rgb(244,91,88)" stroke-width="1" opacity="0.027450980392156862" d="M 531.5 210 L 534.5 214 L 531.5 210 Z " /><path fill="rgb(244,91,88)" stroke="rgb(244,91,88)" stroke-width="1" opacity="0.027450980392156862" d="M 461.5 211 L 462 213.5 L 461 213.5 L 461.5 211 Z " /><path fill="rgb(244,91,88)" stroke="rgb(244,91,88)" stroke-width="1" opacity="0.027450980392156862" d="M 358.5 332 L 359.5 334 L 358.5 332 Z " /><path fill="rgb(244,91,88)" stroke="rgb(244,91,88)" stroke-width="1" opacity="0.027450980392156862" d="M 304.5 456 L 305.5 458 L 304.5 456 Z " /><path fill="rgb(244,91,88)" stroke="rgb(244,91,88)" stroke-width="1" opacity="0.027450980392156862" d="M 296.5 472 L 297.5 474 L 296.5 472 Z " /><path fill="rgb(244,91,88)" stroke="rgb(244,91,88)" stroke-width="1" opacity="0.027450980392156862" d="M 261.5 591 L 262 593.5 L 261 593.5 L 261.5 591 Z " /><path fill="rgb(244,91,88)" stroke="rgb(244,91,88)" stroke-width="1" opacity="0.027450980392156862" d="M 260.5 616 L 261 618.5 L 260 618.5 L 260.5 616 Z " /><path fill="rgb(244,91,88)" stroke="rgb(244,91,88)" stroke-width="1" opacity="0.027450980392156862" d="M 492.5 809 L 502 809.5 L 492.5 810 L 492.5 809 Z " /><path fill="rgb(244,91,88)" stroke="rgb(244,91,88)" stroke-width="1" opacity="0.027450980392156862" d="M 534.5 809 L 538 809.5 L 534.5 810 L 534.5 809 Z " /><path fill="rgb(244,91,88)" stroke="rgb(244,91,88)" stroke-width="1" opacity="0.027450980392156862" d="M 542.5 809 L 545 809.5 L 542.5 810 L 542.5 809 Z " /><path fill="rgb(236,68,63)" stroke="rgb(236,68,63)" stroke-width="1" opacity="0.42745098039215684" d="M 261.5 627 L 262 630.5 L 261 630.5 L 261.5 627 Z " /><path fill="rgb(236,68,63)" stroke="rgb(236,68,63)" stroke-width="1" opacity="0.42745098039215684" d="M 760.5 628 L 761 630.5 L 760 630.5 L 760.5 628 Z " /><path fill="rgb(243,89,58)" stroke="rgb(243,89,58)" stroke-width="1" opacity="0.1450980392156863" d="M 461.5 152 L 460.5 154 L 461.5 152 Z " /><path fill="rgb(243,89,58)" stroke="rgb(243,89,58)" stroke-width="1" opacity="0.1450980392156863" d="M 476.5 163 L 477.5 165 L 476.5 163 Z " /><path fill="rgb(243,89,58)" stroke="rgb(243,89,58)" stroke-width="1" opacity="0.1450980392156863" d="M 457.5 172 L 458 174.5 L 457 174.5 L 457.5 172 Z " /><path fill="rgb(243,89,58)" stroke="rgb(243,89,58)" stroke-width="1" opacity="0.1450980392156863" d="M 502.5 183 L 506 184.5 L 504.5 186 L 502.5 183 Z " /><path fill="rgb(243,89,58)" stroke="rgb(243,89,58)" stroke-width="1" opacity="0.1450980392156863" d="M 511.5 189 L 511.5 192 L 511.5 189 Z " /><path fill="rgb(243,89,58)" stroke="rgb(243,89,58)" stroke-width="1" opacity="0.1450980392156863" d="M 521.5 200 L 528 204.5 L 526.5 206 L 521.5 200 Z " /><path fill="rgb(243,89,58)" stroke="rgb(243,89,58)" stroke-width="1" opacity="0.1450980392156863" d="M 529.5 208 L 530.5 210 L 529.5 208 Z " /><path fill="rgb(243,89,58)" stroke="rgb(243,89,58)" stroke-width="1" opacity="0.1450980392156863" d="M 461.5 214 L 462 218.5 L 461 218.5 L 461.5 214 Z " /><path fill="rgb(243,89,58)" stroke="rgb(243,89,58)" stroke-width="1" opacity="0.1450980392156863" d="M 539.5 219 L 540.5 221 L 539.5 219 Z " /><path fill="rgb(243,89,58)" stroke="rgb(243,89,58)" stroke-width="1" opacity="0.1450980392156863" d="M 545.5 224 L 545.5 227 L 545.5 224 Z " /><path fill="rgb(243,89,58)" stroke="rgb(243,89,58)" stroke-width="1" opacity="0.1450980392156863" d="M 460.5 227 L 461 229.5 L 460 229.5 L 460.5 227 Z " /><path fill="rgb(243,89,58)" stroke="rgb(243,89,58)" stroke-width="1" opacity="0.1450980392156863" d="M 559.5 242 L 558.5 244 L 559.5 242 Z " /><path fill="rgb(243,89,58)" stroke="rgb(243,89,58)" stroke-width="1" opacity="0.1450980392156863" d="M 591.5 298 L 590.5 300 L 591.5 298 Z " /><path fill="rgb(243,89,58)" stroke="rgb(243,89,58)" stroke-width="1" opacity="0.1450980392156863" d="M 643.5 298 L 646.5 302 L 643.5 298 Z " /><path fill="rgb(243,89,58)" stroke="rgb(243,89,58)" stroke-width="1" opacity="0.1450980392156863" d="M 654.5 310 L 655.5 312 L 654.5 310 Z " /><path fill="rgb(243,89,58)" stroke="rgb(243,89,58)" stroke-width="1" opacity="0.1450980392156863" d="M 659.5 316 L 660.5 318 L 659.5 316 Z " /><path fill="rgb(243,89,58)" stroke="rgb(243,89,58)" stroke-width="1" opacity="0.1450980392156863" d="M 670.5 328 L 670.5 331 L 670.5 328 Z " /><path fill="rgb(243,89,58)" stroke="rgb(243,89,58)" stroke-width="1" opacity="0.1450980392156863" d="M 643.5 335 L 644 337.5 L 643 337.5 L 643.5 335 Z " /><path fill="rgb(243,89,58)" stroke="rgb(243,89,58)" stroke-width="1" opacity="0.1450980392156863" d="M 679.5 341 L 678.5 343 L 679.5 341 Z " /><path fill="rgb(243,89,58)" stroke="rgb(243,89,58)" stroke-width="1" opacity="0.1450980392156863" d="M 643.5 363 L 644 365.5 L 643 365.5 L 643.5 363 Z " /><path fill="rgb(243,89,58)" stroke="rgb(243,89,58)" stroke-width="1" opacity="0.1450980392156863" d="M 699.5 376 L 698.5 378 L 699.5 376 Z " /><path fill="rgb(243,89,58)" stroke="rgb(243,89,58)" stroke-width="1" opacity="0.1450980392156863" d="M 710.5 399 L 709.5 401 L 710.5 399 Z " /><path fill="rgb(243,89,58)" stroke="rgb(243,89,58)" stroke-width="1" opacity="0.1450980392156863" d="M 388.5 400 L 391 400.5 Q 388.9 403.8 388.5 400 Z " /><path fill="rgb(243,89,58)" stroke="rgb(243,89,58)" stroke-width="1" opacity="0.1450980392156863" d="M 625.5 416 L 626 418.5 L 625 418.5 L 625.5 416 Z " /><path fill="rgb(243,89,58)" stroke="rgb(243,89,58)" stroke-width="1" opacity="0.1450980392156863" d="M 259.5 627 L 260 629.5 L 259 629.5 L 259.5 627 Z " /><path fill="rgb(243,89,58)" stroke="rgb(243,89,58)" stroke-width="1" opacity="0.1450980392156863" d="M 265.5 656 L 266 657.5 L 264.5 661 L 264 657.5 L 265.5 656 Z " /><path fill="rgb(243,89,58)" stroke="rgb(243,89,58)" stroke-width="1" opacity="0.1450980392156863" d="M 269.5 672 L 269 673.5 L 268.5 675 L 268 673.5 L 269.5 672 Z " /><path fill="rgb(243,89,58)" stroke="rgb(243,89,58)" stroke-width="1" opacity="0.1450980392156863" d="M 282.5 707 L 285 707.5 Q 282.9 710.8 282.5 707 Z " /><path fill="rgb(243,89,58)" stroke="rgb(243,89,58)" stroke-width="1" opacity="0.1450980392156863" d="M 305.5 737 L 306.5 739 L 305.5 737 Z " /><path fill="rgb(243,89,58)" stroke="rgb(243,89,58)" stroke-width="1" opacity="0.1450980392156863" d="M 718.5 738 L 717.5 740 L 718.5 738 Z " /><path fill="rgb(243,89,58)" stroke="rgb(243,89,58)" stroke-width="1" opacity="0.1450980392156863" d="M 711.5 746 L 704.5 754 L 711.5 746 Z " /><path fill="rgb(243,89,58)" stroke="rgb(243,89,58)" stroke-width="1" opacity="0.1450980392156863" d="M 702.5 755 L 699.5 759 L 702.5 755 Z " /><path fill="rgb(243,89,58)" stroke="rgb(243,89,58)" stroke-width="1" opacity="0.1450980392156863" d="M 324.5 756 L 325.5 758 L 324.5 756 Z " /><path fill="rgb(243,89,58)" stroke="rgb(243,89,58)" stroke-width="1" opacity="0.1450980392156863" d="M 330.5 761 L 331.5 763 L 330.5 761 Z " /><path fill="rgb(243,89,58)" stroke="rgb(243,89,58)" stroke-width="1" opacity="0.1450980392156863" d="M 693.5 763 L 692.5 767 L 693.5 763 Z " /><path fill="rgb(243,89,58)" stroke="rgb(243,89,58)" stroke-width="1" opacity="0.1450980392156863" d="M 352.5 778 L 354.5 781 L 352.5 778 Z " /><path fill="rgb(243,89,58)" stroke="rgb(243,89,58)" stroke-width="1" opacity="0.1450980392156863" d="M 447.5 806 L 450 806.5 L 447.5 807 L 447.5 806 Z " /><path fill="rgb(243,89,58)" stroke="rgb(243,89,58)" stroke-width="1" opacity="0.1450980392156863" d="M 457.5 807 L 460 807.5 L 457.5 808 L 457.5 807 Z " /><path fill="rgb(243,89,58)" stroke="rgb(243,89,58)" stroke-width="1" opacity="0.1450980392156863" d="M 473.5 808 L 482 808.5 L 473.5 809 L 473.5 808 Z " /><path fill="rgb(243,89,58)" stroke="rgb(243,89,58)" stroke-width="1" opacity="0.1450980392156863" d="M 560.5 808 L 564 808.5 L 560.5 809 L 560.5 808 Z " /><path fill="rgb(243,89,58)" stroke="rgb(243,89,58)" stroke-width="1" opacity="0.1450980392156863" d="M 502.5 809 L 534 809.5 L 502.5 810 L 502.5 809 Z " /></svg>